<svg width="21" height="21" viewBox="0 0 21 21" fill="none" xmlns="http://www.w3.org/2000/svg">
<g clip-path="url(#clip0_190_1171)">
<path d="M19.7449 8.76125L11.587 8.76086C11.2268 8.76086 10.9348 9.05282 10.9348 9.41305V12.0191C10.9348 12.3793 11.2268 12.6713 11.587 12.6713H16.181C15.6779 13.9768 14.739 15.0701 13.5411 15.7648L15.5 19.1558C18.6423 17.3385 20.5 14.1498 20.5 10.5804C20.5 10.0722 20.4625 9.70883 20.3876 9.29973C20.3307 8.98891 20.0608 8.76125 19.7449 8.76125Z" fill="#167EE6"/>
<path d="M10.5 16.5869C8.25179 16.5869 6.28914 15.3586 5.23504 13.5409L1.84418 15.4953C3.56976 18.4861 6.80234 20.5 10.5 20.5C12.3139 20.5 14.0255 20.0116 15.5 19.1605V19.1558L13.5411 15.7648C12.6451 16.2845 11.6082 16.5869 10.5 16.5869Z" fill="#12B347"/>
<path d="M15.5 19.1604V19.1558L13.5411 15.7648C12.6451 16.2844 11.6083 16.5869 10.5 16.5869V20.5C12.3139 20.5 14.0256 20.0116 15.5 19.1604Z" fill="#0F993E"/>
<path d="M4.41305 10.5C4.41305 9.39183 4.71547 8.35507 5.23504 7.45909L1.84418 5.50464C0.988359 6.97444 0.5 8.6814 0.5 10.5C0.5 12.3186 0.988359 14.0255 1.84418 15.4953L5.23504 13.5409C4.71547 12.6449 4.41305 11.6082 4.41305 10.5Z" fill="#FFD500"/>
<path d="M10.5 4.41305C11.9661 4.41305 13.3127 4.93398 14.3645 5.80051C14.624 6.01426 15.0012 5.99883 15.2389 5.76113L17.0853 3.91465C17.355 3.64496 17.3358 3.20352 17.0477 2.95359C15.2854 1.42473 12.9925 0.5 10.5 0.5C6.80234 0.5 3.56976 2.51395 1.84418 5.50465L5.23504 7.4591C6.28914 5.64141 8.25179 4.41305 10.5 4.41305Z" fill="#FF4B26"/>
<path d="M14.3645 5.80051C14.624 6.01426 15.0012 5.99883 15.2389 5.76113L17.0854 3.91465C17.355 3.64496 17.3358 3.20352 17.0477 2.95359C15.2854 1.42469 12.9925 0.5 10.5 0.5V4.41305C11.966 4.41305 13.3127 4.93398 14.3645 5.80051Z" fill="#D93F21"/>
</g>
<defs>
<clipPath id="clip0_190_1171">
<rect width="20" height="20" fill="white" transform="translate(0.5 0.5)"/>
</clipPath>
</defs>
</svg>
